<svg xmlns="http://www.w3.org/2000/svg" xmlns:xlink="http://www.w3.org/1999/xlink" width="140" zoomAndPan="magnify" viewBox="0 0 104.88 52.499999" height="70" preserveAspectRatio="xMidYMid meet" version="1.2"><defs><clipPath id="750591878a"><path d="M 0.140625 0.898438 L 27.3125 0.898438 L 27.3125 28.070312 L 0.140625 28.070312 Z M 0.140625 0.898438 "/></clipPath><clipPath id="2b54428d80"><path d="M 7.460938 0.898438 L 20.027344 0.898438 C 20.511719 0.898438 20.984375 0.945312 21.457031 1.039062 C 21.929688 1.132812 22.386719 1.269531 22.832031 1.453125 C 23.273438 1.640625 23.695312 1.863281 24.097656 2.132812 C 24.496094 2.398438 24.867188 2.703125 25.207031 3.042969 C 25.546875 3.382812 25.847656 3.75 26.117188 4.152344 C 26.382812 4.550781 26.609375 4.972656 26.792969 5.417969 C 26.976562 5.859375 27.113281 6.320312 27.207031 6.789062 C 27.300781 7.261719 27.347656 7.738281 27.347656 8.21875 L 27.347656 20.789062 C 27.347656 21.269531 27.300781 21.746094 27.207031 22.214844 C 27.113281 22.6875 26.976562 23.144531 26.792969 23.589844 C 26.609375 24.03125 26.382812 24.453125 26.117188 24.855469 C 25.847656 25.253906 25.546875 25.625 25.207031 25.964844 C 24.867188 26.304688 24.496094 26.605469 24.097656 26.875 C 23.695312 27.140625 23.273438 27.367188 22.832031 27.550781 C 22.386719 27.734375 21.929688 27.875 21.457031 27.96875 C 20.984375 28.0625 20.511719 28.109375 20.027344 28.109375 L 7.460938 28.109375 C 6.980469 28.109375 6.503906 28.0625 6.03125 27.96875 C 5.558594 27.875 5.101562 27.734375 4.65625 27.550781 C 4.214844 27.367188 3.792969 27.140625 3.390625 26.875 C 2.992188 26.605469 2.625 26.304688 2.285156 25.964844 C 1.945312 25.625 1.640625 25.253906 1.371094 24.855469 C 1.105469 24.453125 0.878906 24.03125 0.695312 23.589844 C 0.511719 23.144531 0.375 22.6875 0.28125 22.214844 C 0.1875 21.746094 0.140625 21.269531 0.140625 20.789062 L 0.140625 8.21875 C 0.140625 7.738281 0.1875 7.261719 0.28125 6.789062 C 0.375 6.320312 0.511719 5.859375 0.695312 5.417969 C 0.878906 4.972656 1.105469 4.550781 1.371094 4.152344 C 1.640625 3.75 1.945312 3.382812 2.285156 3.042969 C 2.625 2.703125 2.992188 2.398438 3.390625 2.132812 C 3.792969 1.863281 4.214844 1.640625 4.65625 1.453125 C 5.101562 1.269531 5.558594 1.132812 6.03125 1.039062 C 6.503906 0.945312 6.980469 0.898438 7.460938 0.898438 Z M 7.460938 0.898438 "/></clipPath><linearGradient x1="21.460468" gradientTransform="matrix(0,-0.115297,0.115297,0,0.139218,28.107959)" y1="-15.312345" x2="214.498971" gradientUnits="userSpaceOnUse" y2="251.254633" id="d185ffdfbd"><stop style="stop-color:#722c2c;stop-opacity:1;" offset="0"/><stop style="stop-color:#722c2c;stop-opacity:1;" offset="0.00390625"/><stop style="stop-color:#732c2c;stop-opacity:1;" offset="0.0078125"/><stop style="stop-color:#742c2c;stop-opacity:1;" offset="0.0117188"/><stop style="stop-color:#742c2c;stop-opacity:1;" offset="0.015625"/><stop style="stop-color:#752c2c;stop-opacity:1;" offset="0.0195312"/><stop style="stop-color:#762d2d;stop-opacity:1;" offset="0.0234375"/><stop style="stop-color:#772d2d;stop-opacity:1;" offset="0.0273437"/><stop style="stop-color:#772d2d;stop-opacity:1;" offset="0.03125"/><stop style="stop-color:#782d2d;stop-opacity:1;" offset="0.0351562"/><stop style="stop-color:#792d2d;stop-opacity:1;" offset="0.0390625"/><stop style="stop-color:#7a2d2d;stop-opacity:1;" offset="0.0429687"/><stop style="stop-color:#7a2d2d;stop-opacity:1;" offset="0.046875"/><stop style="stop-color:#7b2d2d;stop-opacity:1;" offset="0.0507812"/><stop style="stop-color:#7c2d2d;stop-opacity:1;" offset="0.0546875"/><stop style="stop-color:#7d2d2d;stop-opacity:1;" offset="0.0585937"/><stop style="stop-color:#7d2d2d;stop-opacity:1;" offset="0.0625"/><stop style="stop-color:#7e2d2d;stop-opacity:1;" offset="0.0664062"/><stop style="stop-color:#7f2d2d;stop-opacity:1;" offset="0.0703125"/><stop style="stop-color:#802d2d;stop-opacity:1;" offset="0.0742188"/><stop style="stop-color:#802d2d;stop-opacity:1;" offset="0.078125"/><stop style="stop-color:#812d2d;stop-opacity:1;" offset="0.0820312"/><stop style="stop-color:#822d2d;stop-opacity:1;" offset="0.0859375"/><stop style="stop-color:#822d2d;stop-opacity:1;" offset="0.0898438"/><stop style="stop-color:#832d2d;stop-opacity:1;" offset="0.09375"/><stop style="stop-color:#842d2d;stop-opacity:1;" offset="0.0976563"/><stop style="stop-color:#852d2d;stop-opacity:1;" offset="0.101563"/><stop style="stop-color:#852d2d;stop-opacity:1;" offset="0.105469"/><stop style="stop-color:#862d2d;stop-opacity:1;" offset="0.109375"/><stop style="stop-color:#872d2d;stop-opacity:1;" offset="0.113281"/><stop style="stop-color:#882d2d;stop-opacity:1;" offset="0.117188"/><stop style="stop-color:#882d2d;stop-opacity:1;" offset="0.121094"/><stop style="stop-color:#892d2d;stop-opacity:1;" offset="0.125"/><stop style="stop-color:#8a2d2d;stop-opacity:1;" offset="0.128906"/><stop style="stop-color:#8b2d2d;stop-opacity:1;" offset="0.132812"/><stop style="stop-color:#8b2d2d;stop-opacity:1;" offset="0.136719"/><stop style="stop-color:#8c2d2d;stop-opacity:1;" offset="0.140625"/><stop style="stop-color:#8d2d2d;stop-opacity:1;" offset="0.144531"/><stop style="stop-color:#8e2d2d;stop-opacity:1;" offset="0.148438"/><stop style="stop-color:#8e2d2d;stop-opacity:1;" offset="0.152344"/><stop style="stop-color:#8f2d2d;stop-opacity:1;" offset="0.15625"/><stop style="stop-color:#902d2d;stop-opacity:1;" offset="0.160156"/><stop style="stop-color:#912d2d;stop-opacity:1;" offset="0.164062"/><stop style="stop-color:#912d2d;stop-opacity:1;" offset="0.167969"/><stop style="stop-color:#922d2d;stop-opacity:1;" offset="0.171875"/><stop style="stop-color:#932d2d;stop-opacity:1;" offset="0.175781"/><stop style="stop-color:#932d2d;stop-opacity:1;" offset="0.179688"/><stop style="stop-color:#942e2e;stop-opacity:1;" offset="0.183594"/><stop style="stop-color:#952e2e;stop-opacity:1;" offset="0.1875"/><stop style="stop-color:#962e2e;stop-opacity:1;" offset="0.191406"/><stop style="stop-color:#962e2e;stop-opacity:1;" offset="0.195313"/><stop style="stop-color:#972e2e;stop-opacity:1;" offset="0.199219"/><stop style="stop-color:#982e2e;stop-opacity:1;" offset="0.203125"/><stop style="stop-color:#992e2e;stop-opacity:1;" offset="0.207031"/><stop style="stop-color:#992e2e;stop-opacity:1;" offset="0.210937"/><stop style="stop-color:#9a2e2e;stop-opacity:1;" offset="0.214844"/><stop style="stop-color:#9b2e2e;stop-opacity:1;" offset="0.21875"/><stop style="stop-color:#9c2e2e;stop-opacity:1;" offset="0.222656"/><stop style="stop-color:#9c2e2e;stop-opacity:1;" offset="0.226562"/><stop style="stop-color:#9d2e2e;stop-opacity:1;" offset="0.230469"/><stop style="stop-color:#9e2e2e;stop-opacity:1;" offset="0.234375"/><stop style="stop-color:#9f2e2e;stop-opacity:1;" offset="0.238281"/><stop style="stop-color:#9f2e2e;stop-opacity:1;" offset="0.242188"/><stop style="stop-color:#a02e2e;stop-opacity:1;" offset="0.246094"/><stop style="stop-color:#a12e2e;stop-opacity:1;" offset="0.25"/><stop style="stop-color:#a12e2e;stop-opacity:1;" offset="0.253906"/><stop style="stop-color:#a22e2e;stop-opacity:1;" offset="0.257812"/><stop style="stop-color:#a32e2e;stop-opacity:1;" offset="0.261719"/><stop style="stop-color:#a42e2e;stop-opacity:1;" offset="0.265625"/><stop style="stop-color:#a42e2e;stop-opacity:1;" offset="0.269531"/><stop style="stop-color:#a52e2e;stop-opacity:1;" offset="0.273438"/><stop style="stop-color:#a62e2e;stop-opacity:1;" offset="0.277344"/><stop style="stop-color:#a72e2e;stop-opacity:1;" offset="0.28125"/><stop style="stop-color:#a72e2e;stop-opacity:1;" offset="0.285156"/><stop style="stop-color:#a82e2e;stop-opacity:1;" offset="0.289062"/><stop style="stop-color:#a92e2e;stop-opacity:1;" offset="0.292969"/><stop style="stop-color:#aa2e2e;stop-opacity:1;" offset="0.296875"/><stop style="stop-color:#aa2e2e;stop-opacity:1;" offset="0.300781"/><stop style="stop-color:#ab2e2e;stop-opacity:1;" offset="0.304688"/><stop style="stop-color:#ac2e2e;stop-opacity:1;" offset="0.308594"/><stop style="stop-color:#ad2e2e;stop-opacity:1;" offset="0.3125"/><stop style="stop-color:#ad2e2e;stop-opacity:1;" offset="0.316406"/><stop style="stop-color:#ae2e2e;stop-opacity:1;" offset="0.320313"/><stop style="stop-color:#af2e2e;stop-opacity:1;" offset="0.324219"/><stop style="stop-color:#b02e2e;stop-opacity:1;" offset="0.328125"/><stop style="stop-color:#b02e2e;stop-opacity:1;" offset="0.332031"/><stop style="stop-color:#b12e2e;stop-opacity:1;" offset="0.335938"/><stop style="stop-color:#b22e2e;stop-opacity:1;" offset="0.339844"/><stop style="stop-color:#b22e2e;stop-opacity:1;" offset="0.34375"/><stop style="stop-color:#b32f2f;stop-opacity:1;" offset="0.347656"/><stop style="stop-color:#b42f2f;stop-opacity:1;" offset="0.351562"/><stop style="stop-color:#b52f2f;stop-opacity:1;" offset="0.355469"/><stop style="stop-color:#b52f2f;stop-opacity:1;" offset="0.359375"/><stop style="stop-color:#b62f2f;stop-opacity:1;" offset="0.363281"/><stop style="stop-color:#b72f2f;stop-opacity:1;" offset="0.367188"/><stop style="stop-color:#b82f2f;stop-opacity:1;" offset="0.371094"/><stop style="stop-color:#b82f2f;stop-opacity:1;" offset="0.375"/><stop style="stop-color:#b92f2f;stop-opacity:1;" offset="0.378906"/><stop style="stop-color:#ba2f2f;stop-opacity:1;" offset="0.382812"/><stop style="stop-color:#bb2f2f;stop-opacity:1;" offset="0.386719"/><stop style="stop-color:#bb2f2f;stop-opacity:1;" offset="0.390625"/><stop style="stop-color:#bc2f2f;stop-opacity:1;" offset="0.394531"/><stop style="stop-color:#bd2f2f;stop-opacity:1;" offset="0.398438"/><stop style="stop-color:#be2f2f;stop-opacity:1;" offset="0.402344"/><stop style="stop-color:#be2f2f;stop-opacity:1;" offset="0.40625"/><stop style="stop-color:#bf2f2f;stop-opacity:1;" offset="0.410156"/><stop style="stop-color:#c02f2f;stop-opacity:1;" offset="0.414062"/><stop style="stop-color:#c02f2f;stop-opacity:1;" offset="0.417969"/><stop style="stop-color:#c12f2f;stop-opacity:1;" offset="0.421875"/><stop style="stop-color:#c22f2f;stop-opacity:1;" offset="0.425781"/><stop style="stop-color:#c32f2f;stop-opacity:1;" offset="0.429688"/><stop style="stop-color:#c32f2f;stop-opacity:1;" offset="0.433594"/><stop style="stop-color:#c42f2f;stop-opacity:1;" offset="0.4375"/><stop style="stop-color:#c52f2f;stop-opacity:1;" offset="0.441406"/><stop style="stop-color:#c62f2f;stop-opacity:1;" offset="0.445312"/><stop style="stop-color:#c62f2f;stop-opacity:1;" offset="0.449219"/><stop style="stop-color:#c72f2f;stop-opacity:1;" offset="0.453125"/><stop style="stop-color:#c82f2f;stop-opacity:1;" offset="0.457031"/><stop style="stop-color:#c92f2f;stop-opacity:1;" offset="0.460938"/><stop style="stop-color:#c92f2f;stop-opacity:1;" offset="0.464844"/><stop style="stop-color:#ca2f2f;stop-opacity:1;" offset="0.46875"/><stop style="stop-color:#cb2f2f;stop-opacity:1;" offset="0.472656"/><stop style="stop-color:#cc2f2f;stop-opacity:1;" offset="0.476563"/><stop style="stop-color:#cc2f2f;stop-opacity:1;" offset="0.480469"/><stop style="stop-color:#cd2f2f;stop-opacity:1;" offset="0.484375"/><stop style="stop-color:#ce2f2f;stop-opacity:1;" offset="0.488281"/><stop style="stop-color:#cf2f2f;stop-opacity:1;" offset="0.492187"/><stop style="stop-color:#cf2f2f;stop-opacity:1;" offset="0.496094"/><stop style="stop-color:#d02f2f;stop-opacity:1;" offset="0.5"/><stop style="stop-color:#d12f2f;stop-opacity:1;" offset="0.503906"/><stop style="stop-color:#d13030;stop-opacity:1;" offset="0.507812"/><stop style="stop-color:#d23030;stop-opacity:1;" offset="0.511719"/><stop style="stop-color:#d33030;stop-opacity:1;" offset="0.515625"/><stop style="stop-color:#d43030;stop-opacity:1;" offset="0.519531"/><stop style="stop-color:#d43030;stop-opacity:1;" offset="0.523438"/><stop style="stop-color:#d53030;stop-opacity:1;" offset="0.527344"/><stop style="stop-color:#d63030;stop-opacity:1;" offset="0.53125"/><stop style="stop-color:#d73030;stop-opacity:1;" offset="0.535156"/><stop style="stop-color:#d73030;stop-opacity:1;" offset="0.539062"/><stop style="stop-color:#d83030;stop-opacity:1;" offset="0.542969"/><stop style="stop-color:#d93030;stop-opacity:1;" offset="0.546875"/><stop style="stop-color:#da3030;stop-opacity:1;" offset="0.550781"/><stop style="stop-color:#da3030;stop-opacity:1;" offset="0.554688"/><stop style="stop-color:#db3030;stop-opacity:1;" offset="0.558594"/><stop style="stop-color:#dc3030;stop-opacity:1;" offset="0.5625"/><stop style="stop-color:#dd3030;stop-opacity:1;" offset="0.566406"/><stop style="stop-color:#dd3030;stop-opacity:1;" offset="0.570312"/><stop style="stop-color:#de3030;stop-opacity:1;" offset="0.574219"/><stop style="stop-color:#df3030;stop-opacity:1;" offset="0.578125"/><stop style="stop-color:#df3030;stop-opacity:1;" offset="0.582031"/><stop style="stop-color:#e03030;stop-opacity:1;" offset="0.585938"/><stop style="stop-color:#e13030;stop-opacity:1;" offset="0.589844"/><stop style="stop-color:#e23030;stop-opacity:1;" offset="0.59375"/><stop style="stop-color:#e23030;stop-opacity:1;" offset="0.597656"/><stop style="stop-color:#e33030;stop-opacity:1;" offset="0.601562"/><stop style="stop-color:#e43030;stop-opacity:1;" offset="0.605469"/><stop style="stop-color:#e53030;stop-opacity:1;" offset="0.609375"/><stop style="stop-color:#e53030;stop-opacity:1;" offset="0.613281"/><stop style="stop-color:#e63030;stop-opacity:1;" offset="0.617188"/><stop style="stop-color:#e73030;stop-opacity:1;" offset="0.621094"/><stop style="stop-color:#e83030;stop-opacity:1;" offset="0.625"/><stop style="stop-color:#e83030;stop-opacity:1;" offset="0.628906"/><stop style="stop-color:#e93030;stop-opacity:1;" offset="0.632812"/><stop style="stop-color:#ea3030;stop-opacity:1;" offset="0.636719"/><stop style="stop-color:#eb3030;stop-opacity:1;" offset="0.640625"/><stop style="stop-color:#eb3030;stop-opacity:1;" offset="0.644531"/><stop style="stop-color:#ec3030;stop-opacity:1;" offset="0.648438"/><stop style="stop-color:#ed3030;stop-opacity:1;" offset="0.652344"/><stop style="stop-color:#ee3030;stop-opacity:1;" offset="0.65625"/><stop style="stop-color:#ee3030;stop-opacity:1;" offset="0.660156"/><stop style="stop-color:#ef3030;stop-opacity:1;" offset="0.664062"/><stop style="stop-color:#f03131;stop-opacity:1;" offset="0.667969"/><stop style="stop-color:#f03131;stop-opacity:1;" offset="0.671875"/><stop style="stop-color:#f13131;stop-opacity:1;" offset="0.675781"/><stop style="stop-color:#f23131;stop-opacity:1;" offset="0.679688"/><stop style="stop-color:#f33131;stop-opacity:1;" offset="0.683594"/><stop style="stop-color:#f33131;stop-opacity:1;" offset="0.6875"/><stop style="stop-color:#f43131;stop-opacity:1;" offset="0.691406"/><stop style="stop-color:#f53131;stop-opacity:1;" offset="0.695312"/><stop style="stop-color:#f63131;stop-opacity:1;" offset="0.699219"/><stop style="stop-color:#f63131;stop-opacity:1;" offset="0.703125"/><stop style="stop-color:#f73131;stop-opacity:1;" offset="0.707031"/><stop style="stop-color:#f83131;stop-opacity:1;" offset="0.710938"/><stop style="stop-color:#f93131;stop-opacity:1;" offset="0.714844"/><stop style="stop-color:#f93131;stop-opacity:1;" offset="0.71875"/><stop style="stop-color:#fa3131;stop-opacity:1;" offset="0.722656"/><stop style="stop-color:#fb3131;stop-opacity:1;" offset="0.726562"/><stop style="stop-color:#fc3131;stop-opacity:1;" offset="0.730469"/><stop style="stop-color:#fc3131;stop-opacity:1;" offset="0.734375"/><stop style="stop-color:#fd3131;stop-opacity:1;" offset="0.738281"/><stop style="stop-color:#fe3131;stop-opacity:1;" offset="0.742188"/><stop style="stop-color:#fe3131;stop-opacity:1;" offset="0.746094"/><stop style="stop-color:#ff3131;stop-opacity:1;" offset="0.75"/><stop style="stop-color:#ff3131;stop-opacity:1;" offset="1"/></linearGradient><clipPath id="21a954b261"><path d="M 20 2.828125 L 23 2.828125 L 23 4 L 20 4 Z M 20 2.828125 "/></clipPath><clipPath id="e413f72800"><path d="M 2.09375 6 L 3 6 L 3 8 L 2.09375 8 Z M 2.09375 6 "/></clipPath><clipPath id="573ad2ebaf"><path d="M 4 2.828125 L 7 2.828125 L 7 4 L 4 4 Z M 4 2.828125 "/></clipPath><clipPath id="6f061e952a"><path d="M 3 21 L 16 21 L 16 26.894531 L 3 26.894531 Z M 3 21 "/></clipPath><clipPath id="9808a7ded3"><path d="M 3 15 L 25.382812 15 L 25.382812 26 L 3 26 Z M 3 15 "/></clipPath><clipPath id="de1cb51b76"><rect x="0" width="28" y="0" height="29"/></clipPath><clipPath id="61ffa633b5"><path d="M 36 0.0429688 L 42 0.0429688 L 42 26 L 36 26 Z M 36 0.0429688 "/></clipPath><clipPath id="b690c242d9"><rect x="0" width="6" y="0" height="26"/></clipPath><clipPath id="79717bc960"><rect x="0" width="68" y="0" height="35"/></clipPath></defs><g id="749ba3768c"><g transform="matrix(1,0,0,1,2,13)"><g clip-path="url(#de1cb51b76)"><g clip-rule="nonzero" clip-path="url(#750591878a)"><g clip-rule="nonzero" clip-path="url(#2b54428d80)"><path style=" stroke:none;fill-rule:nonzero;fill:url(#d185ffdfbd);" d="M 0.140625 28.070312 L 27.3125 28.070312 L 27.3125 0.898438 L 0.140625 0.898438 Z M 0.140625 28.070312 "/></g></g><path style=" stroke:none;fill-rule:nonzero;fill:#ffffff;fill-opacity:1;" d="M 24.789062 7.128906 L 24.226562 7.128906 C 24.140625 7.128906 24.074219 7.058594 24.074219 6.976562 C 24.074219 6.894531 24.140625 6.824219 24.226562 6.824219 L 24.789062 6.824219 C 24.875 6.824219 24.941406 6.894531 24.941406 6.976562 C 24.941406 7.058594 24.875 7.128906 24.789062 7.128906 "/><path style=" stroke:none;fill-rule:nonzero;fill:#ffffff;fill-opacity:1;" d="M 22.464844 7.128906 L 21.265625 7.128906 C 21.179688 7.128906 21.113281 7.058594 21.113281 6.976562 C 21.113281 6.894531 21.179688 6.824219 21.265625 6.824219 L 22.464844 6.824219 C 22.546875 6.824219 22.613281 6.894531 22.613281 6.976562 C 22.613281 7.058594 22.546875 7.128906 22.464844 7.128906 "/><path style=" stroke:none;fill-rule:nonzero;fill:#ffffff;fill-opacity:1;" d="M 20.136719 7.128906 L 16.867188 7.128906 C 16.785156 7.128906 16.71875 7.058594 16.71875 6.976562 C 16.71875 6.894531 16.785156 6.824219 16.867188 6.824219 L 20.136719 6.824219 C 20.21875 6.824219 20.285156 6.894531 20.285156 6.976562 C 20.285156 7.058594 20.21875 7.128906 20.136719 7.128906 "/><path style=" stroke:none;fill-rule:nonzero;fill:#ffffff;fill-opacity:1;" d="M 18.703125 9.210938 C 18.683594 9.210938 18.664062 9.207031 18.644531 9.199219 L 16.570312 8.359375 C 16.492188 8.328125 16.453125 8.242188 16.484375 8.164062 C 16.515625 8.085938 16.605469 8.050781 16.683594 8.082031 L 18.757812 8.917969 C 18.835938 8.949219 18.871094 9.039062 18.84375 9.117188 C 18.816406 9.175781 18.761719 9.210938 18.703125 9.210938 "/><g clip-rule="nonzero" clip-path="url(#21a954b261)"><path style=" stroke:none;fill-rule:nonzero;fill:#ffffff;fill-opacity:1;" d="M 21.0625 3.882812 C 21.003906 3.882812 20.945312 3.847656 20.921875 3.789062 C 20.886719 3.714844 20.925781 3.625 21 3.589844 L 22.667969 2.871094 C 22.746094 2.839844 22.832031 2.875 22.867188 2.949219 C 22.898438 3.027344 22.863281 3.117188 22.789062 3.148438 L 21.121094 3.871094 C 21.101562 3.878906 21.082031 3.882812 21.0625 3.882812 "/></g><path style=" stroke:none;fill-rule:nonzero;fill:#ffffff;fill-opacity:1;" d="M 18.792969 4.863281 C 18.734375 4.863281 18.675781 4.828125 18.652344 4.769531 C 18.621094 4.695312 18.65625 4.605469 18.730469 4.570312 L 20.074219 3.992188 C 20.148438 3.960938 20.238281 3.996094 20.269531 4.070312 C 20.304688 4.148438 20.269531 4.238281 20.191406 4.269531 L 18.851562 4.851562 C 18.832031 4.859375 18.8125 4.863281 18.792969 4.863281 "/><path style=" stroke:none;fill-rule:nonzero;fill:#ffffff;fill-opacity:1;" d="M 16.65625 5.796875 L 16.535156 5.519531 L 17.84375 4.957031 C 17.921875 4.921875 18.011719 4.957031 18.042969 5.035156 C 18.078125 5.109375 18.042969 5.199219 17.964844 5.234375 L 16.65625 5.796875 "/><g clip-rule="nonzero" clip-path="url(#e413f72800)"><path style=" stroke:none;fill-rule:nonzero;fill:#ffffff;fill-opacity:1;" d="M 2.808594 7.128906 L 2.246094 7.128906 C 2.160156 7.128906 2.09375 7.058594 2.09375 6.976562 C 2.09375 6.894531 2.160156 6.824219 2.246094 6.824219 L 2.808594 6.824219 C 2.894531 6.824219 2.960938 6.894531 2.960938 6.976562 C 2.960938 7.058594 2.894531 7.128906 2.808594 7.128906 "/></g><path style=" stroke:none;fill-rule:nonzero;fill:#ffffff;fill-opacity:1;" d="M 5.773438 7.128906 L 4.574219 7.128906 C 4.488281 7.128906 4.421875 7.058594 4.421875 6.976562 C 4.421875 6.894531 4.488281 6.824219 4.574219 6.824219 L 5.773438 6.824219 C 5.855469 6.824219 5.921875 6.894531 5.921875 6.976562 C 5.921875 7.058594 5.855469 7.128906 5.773438 7.128906 "/><path style=" stroke:none;fill-rule:nonzero;fill:#ffffff;fill-opacity:1;" d="M 10.167969 7.128906 L 6.902344 7.128906 C 6.816406 7.128906 6.75 7.058594 6.75 6.976562 C 6.75 6.894531 6.816406 6.824219 6.902344 6.824219 L 10.167969 6.824219 C 10.25 6.824219 10.320312 6.894531 10.320312 6.976562 C 10.320312 7.058594 10.25 7.128906 10.167969 7.128906 "/><path style=" stroke:none;fill-rule:nonzero;fill:#ffffff;fill-opacity:1;" d="M 8.335938 9.210938 C 8.273438 9.210938 8.21875 9.175781 8.195312 9.117188 C 8.164062 9.039062 8.199219 8.949219 8.277344 8.917969 L 10.351562 8.082031 C 10.429688 8.050781 10.519531 8.085938 10.550781 8.164062 C 10.582031 8.242188 10.542969 8.328125 10.464844 8.359375 L 8.390625 9.199219 C 8.371094 9.207031 8.351562 9.210938 8.335938 9.210938 "/><g clip-rule="nonzero" clip-path="url(#573ad2ebaf)"><path style=" stroke:none;fill-rule:nonzero;fill:#ffffff;fill-opacity:1;" d="M 5.976562 3.882812 C 5.957031 3.882812 5.933594 3.878906 5.914062 3.871094 L 4.25 3.148438 C 4.171875 3.117188 4.136719 3.027344 4.167969 2.949219 C 4.203125 2.875 4.292969 2.839844 4.367188 2.871094 L 6.035156 3.589844 C 6.113281 3.625 6.148438 3.714844 6.113281 3.789062 C 6.089844 3.847656 6.035156 3.882812 5.976562 3.882812 "/></g><path style=" stroke:none;fill-rule:nonzero;fill:#ffffff;fill-opacity:1;" d="M 8.246094 4.863281 C 8.222656 4.863281 8.203125 4.859375 8.183594 4.851562 L 6.84375 4.269531 C 6.765625 4.238281 6.730469 4.148438 6.765625 4.070312 C 6.796875 3.996094 6.886719 3.960938 6.964844 3.992188 L 8.304688 4.570312 C 8.382812 4.605469 8.417969 4.695312 8.382812 4.769531 C 8.359375 4.828125 8.304688 4.863281 8.246094 4.863281 "/><path style=" stroke:none;fill-rule:nonzero;fill:#ffffff;fill-opacity:1;" d="M 10.441406 5.8125 C 10.417969 5.8125 10.398438 5.808594 10.378906 5.796875 L 9.070312 5.234375 C 8.996094 5.199219 8.960938 5.109375 8.992188 5.035156 C 9.027344 4.957031 9.113281 4.921875 9.191406 4.957031 L 10.5 5.519531 C 10.578125 5.554688 10.613281 5.644531 10.578125 5.71875 C 10.554688 5.777344 10.5 5.8125 10.441406 5.8125 "/><g clip-rule="nonzero" clip-path="url(#6f061e952a)"><path style=" stroke:none;fill-rule:nonzero;fill:#ffffff;fill-opacity:1;" d="M 14.671875 24.484375 L 14.648438 24.496094 C 14.445312 24.589844 14.210938 24.699219 13.964844 24.804688 C 13.488281 25.007812 12.984375 25.1875 12.46875 25.335938 L 12.460938 25.339844 C 12.144531 25.425781 11.898438 25.484375 11.65625 25.527344 C 11.519531 25.554688 11.382812 25.578125 11.242188 25.597656 C 11.1875 25.605469 11.136719 25.613281 11.089844 25.617188 C 11.070312 25.621094 11.050781 25.625 11.03125 25.625 L 11.023438 25.628906 C 11 25.628906 10.980469 25.632812 10.960938 25.632812 C 10.914062 25.640625 10.863281 25.648438 10.804688 25.652344 C 10.769531 25.652344 10.738281 25.65625 10.703125 25.660156 C 10.601562 25.667969 10.496094 25.679688 10.382812 25.683594 L 10.175781 25.691406 L 9.96875 25.691406 C 9.949219 25.691406 9.925781 25.695312 9.902344 25.695312 C 9.804688 25.695312 9.714844 25.691406 9.625 25.6875 L 9.5 25.683594 L 9.441406 25.679688 L 9.328125 25.671875 L 9.242188 25.667969 L 9.191406 25.664062 L 9.132812 25.65625 L 8.917969 25.632812 C 8.890625 25.632812 8.867188 25.628906 8.84375 25.625 L 8.695312 25.605469 L 8.589844 25.589844 C 8.589844 25.589844 8.441406 25.5625 8.417969 25.5625 C 8.371094 25.550781 8.324219 25.542969 8.273438 25.535156 C 7.996094 25.476562 7.71875 25.40625 7.445312 25.320312 L 7.4375 25.320312 C 6.859375 25.132812 6.328125 24.890625 5.867188 24.601562 L 5.777344 24.546875 C 5.753906 24.53125 5.730469 24.515625 5.707031 24.5 L 5.679688 24.480469 C 5.621094 24.441406 5.566406 24.402344 5.507812 24.363281 L 5.5 24.355469 L 5.328125 24.226562 L 5.308594 24.210938 C 5.285156 24.191406 5.265625 24.175781 5.242188 24.160156 L 5.234375 24.152344 L 5.15625 24.085938 L 4.957031 23.917969 L 4.828125 23.792969 L 4.753906 23.71875 L 4.730469 23.691406 L 4.6875 23.644531 C 4.632812 23.585938 4.574219 23.523438 4.523438 23.464844 L 4.480469 23.417969 C 4.460938 23.394531 4.445312 23.375 4.433594 23.359375 L 4.359375 23.265625 L 4.335938 23.234375 C 4.300781 23.1875 4.265625 23.140625 4.230469 23.089844 L 4.222656 23.082031 L 4.21875 23.074219 C 4.175781 23.011719 4.136719 22.949219 4.101562 22.890625 L 4.046875 22.808594 C 4.023438 22.769531 4.007812 22.738281 3.992188 22.714844 C 3.988281 22.707031 3.988281 22.699219 3.984375 22.695312 L 3.976562 22.683594 L 3.878906 22.503906 L 3.851562 22.445312 L 3.820312 22.382812 L 3.78125 22.289062 L 3.761719 22.25 C 3.738281 22.199219 3.714844 22.144531 3.691406 22.085938 L 3.691406 22.078125 L 3.621094 21.882812 L 3.589844 21.789062 C 3.578125 21.75 3.570312 21.71875 3.5625 21.695312 C 3.558594 21.6875 3.558594 21.679688 3.554688 21.671875 L 3.503906 21.476562 L 3.488281 21.414062 L 3.476562 21.347656 L 3.449219 21.210938 C 3.449219 21.203125 3.445312 21.195312 3.445312 21.1875 C 3.410156 21.328125 3.378906 21.472656 3.355469 21.621094 C 3.289062 22.027344 3.277344 22.46875 3.34375 22.929688 C 3.347656 22.957031 3.351562 22.988281 3.355469 23.015625 C 3.359375 23.046875 3.367188 23.074219 3.371094 23.101562 C 3.382812 23.160156 3.394531 23.21875 3.40625 23.277344 C 3.417969 23.335938 3.4375 23.394531 3.453125 23.453125 C 3.46875 23.511719 3.484375 23.570312 3.503906 23.628906 C 3.523438 23.6875 3.542969 23.742188 3.566406 23.800781 C 3.574219 23.832031 3.585938 23.859375 3.597656 23.890625 L 3.613281 23.933594 L 3.632812 23.976562 C 3.660156 24.035156 3.683594 24.09375 3.710938 24.148438 C 3.726562 24.179688 3.738281 24.207031 3.753906 24.238281 C 3.769531 24.265625 3.78125 24.292969 3.796875 24.320312 C 3.828125 24.378906 3.859375 24.433594 3.890625 24.492188 C 3.925781 24.546875 3.960938 24.601562 4 24.65625 C 4.015625 24.683594 4.035156 24.710938 4.054688 24.738281 L 4.082031 24.78125 L 4.113281 24.820312 C 4.152344 24.875 4.191406 24.925781 4.234375 24.980469 C 4.253906 25.003906 4.273438 25.035156 4.296875 25.058594 L 4.363281 25.132812 C 4.410156 25.183594 4.457031 25.234375 4.503906 25.285156 C 4.550781 25.332031 4.601562 25.378906 4.652344 25.425781 L 4.726562 25.496094 C 4.738281 25.507812 4.75 25.519531 4.765625 25.53125 L 4.8125 25.566406 C 4.871094 25.617188 4.933594 25.664062 4.996094 25.710938 L 5.042969 25.746094 L 5.066406 25.765625 L 5.082031 25.777344 L 5.144531 25.820312 C 5.1875 25.851562 5.230469 25.882812 5.273438 25.910156 C 5.339844 25.953125 5.410156 25.992188 5.476562 26.035156 L 5.5625 26.082031 C 5.59375 26.101562 5.621094 26.113281 5.652344 26.128906 C 5.710938 26.160156 5.769531 26.191406 5.828125 26.222656 C 5.886719 26.253906 5.945312 26.28125 6.007812 26.308594 C 6.039062 26.320312 6.070312 26.335938 6.097656 26.347656 L 6.191406 26.386719 C 6.683594 26.589844 7.207031 26.722656 7.734375 26.800781 C 7.996094 26.835938 8.261719 26.859375 8.53125 26.867188 C 8.597656 26.867188 8.664062 26.867188 8.730469 26.871094 L 8.828125 26.871094 L 8.929688 26.867188 L 9.027344 26.863281 L 9.078125 26.863281 C 9.09375 26.863281 9.113281 26.863281 9.128906 26.859375 C 9.203125 26.855469 9.273438 26.851562 9.34375 26.847656 L 9.398438 26.84375 L 9.527344 26.832031 L 9.609375 26.824219 L 9.628906 26.820312 L 9.675781 26.816406 L 9.726562 26.808594 C 9.855469 26.789062 9.988281 26.773438 10.117188 26.75 C 10.183594 26.738281 10.25 26.726562 10.316406 26.714844 L 10.511719 26.675781 C 10.640625 26.648438 10.769531 26.613281 10.898438 26.578125 C 10.964844 26.5625 11.027344 26.542969 11.089844 26.523438 C 11.15625 26.503906 11.21875 26.488281 11.28125 26.464844 C 11.410156 26.425781 11.535156 26.382812 11.660156 26.335938 C 11.90625 26.242188 12.148438 26.136719 12.386719 26.027344 C 12.855469 25.804688 13.300781 25.554688 13.714844 25.289062 C 13.921875 25.15625 14.121094 25.019531 14.316406 24.882812 C 14.507812 24.746094 14.703125 24.609375 14.882812 24.472656 C 15.003906 24.378906 15.125 24.289062 15.246094 24.199219 C 15.054688 24.296875 14.859375 24.390625 14.671875 24.484375 "/></g><path style=" stroke:none;fill-rule:nonzero;fill:#ffffff;fill-opacity:1;" d="M 14.128906 13.820312 L 13.164062 13.820312 L 13.164062 13.253906 C 13.164062 12.96875 13.347656 12.738281 13.589844 12.707031 C 13.570312 12.703125 13.554688 12.703125 13.535156 12.703125 C 13.273438 12.703125 13.058594 12.949219 13.058594 13.253906 L 13.058594 13.820312 L 12.980469 13.820312 L 12.980469 13.207031 C 12.980469 12.890625 13.238281 12.632812 13.554688 12.632812 C 13.871094 12.632812 14.128906 12.890625 14.128906 13.207031 Z M 15.699219 13.660156 L 11.660156 11.078125 L 11.515625 13.171875 L 15.855469 15.945312 Z M 14.128906 18.269531 L 13.164062 18.269531 L 13.164062 17.703125 C 13.164062 17.417969 13.347656 17.1875 13.589844 17.15625 C 13.570312 17.152344 13.554688 17.152344 13.535156 17.152344 C 13.273438 17.152344 13.058594 17.398438 13.058594 17.703125 L 13.058594 18.269531 L 12.980469 18.269531 L 12.980469 17.65625 C 12.980469 17.335938 13.238281 17.082031 13.554688 17.082031 C 13.871094 17.082031 14.128906 17.335938 14.128906 17.65625 Z M 16.015625 18.316406 L 11.367188 15.34375 L 11.222656 17.4375 L 14.769531 19.707031 C 15.183594 19.484375 15.613281 19.265625 16.070312 19.070312 Z M 10.972656 21.121094 L 10.992188 21.121094 L 11.078125 21.117188 L 11.101562 21.117188 L 11.1875 21.109375 L 11.203125 21.109375 L 11.292969 21.101562 L 11.363281 21.09375 C 11.386719 21.09375 11.40625 21.089844 11.429688 21.085938 C 11.46875 21.082031 11.503906 21.078125 11.535156 21.074219 L 11.546875 21.070312 L 11.632812 21.058594 L 11.730469 21.039062 L 11.738281 21.039062 C 11.761719 21.035156 11.792969 21.027344 11.828125 21.019531 C 11.851562 21.015625 11.875 21.007812 11.898438 21.003906 C 12.121094 20.953125 12.347656 20.882812 12.597656 20.789062 C 12.660156 20.765625 12.726562 20.738281 12.792969 20.710938 L 11.074219 19.613281 Z M 15.542969 6.859375 L 15.191406 6.859375 C 15.191406 6.859375 15.546875 4.789062 13.636719 4.144531 L 13.636719 3.015625 L 13.472656 3.015625 L 13.472656 4.144531 C 11.566406 4.789062 11.917969 6.859375 11.917969 6.859375 L 11.570312 6.859375 L 11.570312 7.066406 L 15.542969 7.066406 Z M 15.542969 8.375 L 15.191406 8.375 L 15.191406 7.230469 L 14.867188 7.230469 L 14.867188 8.375 L 14.457031 8.375 L 14.457031 7.230469 L 14.128906 7.230469 L 14.128906 8.375 L 13.71875 8.375 L 13.71875 7.230469 L 13.390625 7.230469 L 13.390625 8.375 L 12.980469 8.375 L 12.980469 7.230469 L 12.652344 7.230469 L 12.652344 8.375 L 12.246094 8.375 L 12.246094 7.230469 L 11.917969 7.230469 L 11.917969 8.375 L 11.570312 8.375 L 11.570312 8.742188 L 15.542969 8.742188 Z M 11.839844 8.925781 L 15.539062 11.289062 L 15.375 8.925781 Z M 11.839844 8.925781 "/><g clip-rule="nonzero" clip-path="url(#9808a7ded3)"><path style=" stroke:none;fill-rule:nonzero;fill:#ffffff;fill-opacity:1;" d="M 19.707031 19.011719 C 19.613281 19 19.519531 18.988281 19.421875 18.980469 C 19.257812 18.964844 19.089844 18.960938 18.917969 18.960938 C 18.828125 18.960938 18.742188 18.960938 18.65625 18.96875 C 18.613281 18.96875 18.566406 18.972656 18.523438 18.976562 C 18.480469 18.980469 18.433594 18.984375 18.390625 18.988281 C 18.347656 18.992188 18.300781 18.996094 18.257812 19 C 18.214844 19.007812 18.167969 19.011719 18.125 19.019531 C 18.035156 19.03125 17.945312 19.046875 17.855469 19.066406 C 17.765625 19.082031 17.675781 19.101562 17.582031 19.121094 C 17.492188 19.144531 17.40625 19.167969 17.3125 19.191406 C 17.222656 19.21875 17.136719 19.246094 17.042969 19.277344 C 17 19.292969 16.957031 19.308594 16.910156 19.324219 L 16.808594 19.359375 L 16.800781 19.363281 C 16.800781 19.363281 16.777344 19.371094 16.785156 19.371094 L 16.769531 19.375 C 16.734375 19.386719 16.695312 19.402344 16.65625 19.417969 L 16.601562 19.4375 L 16.539062 19.464844 C 16.492188 19.480469 16.449219 19.5 16.40625 19.515625 C 16.363281 19.535156 16.324219 19.550781 16.28125 19.570312 C 15.628906 19.851562 15.007812 20.191406 14.429688 20.503906 C 13.851562 20.816406 13.308594 21.101562 12.789062 21.296875 C 12.527344 21.394531 12.269531 21.476562 12.015625 21.535156 C 11.949219 21.546875 11.886719 21.5625 11.820312 21.574219 L 11.726562 21.59375 L 11.628906 21.605469 C 11.5625 21.617188 11.496094 21.625 11.433594 21.632812 L 11.410156 21.636719 L 11.402344 21.636719 C 11.410156 21.636719 11.375 21.636719 11.417969 21.636719 L 11.402344 21.636719 L 11.339844 21.640625 L 11.273438 21.648438 L 11.242188 21.652344 L 11.222656 21.652344 L 11.144531 21.65625 C 11.136719 21.660156 11.128906 21.660156 11.121094 21.660156 L 11.050781 21.660156 L 11.003906 21.664062 L 10.957031 21.664062 C 10.925781 21.664062 10.894531 21.664062 10.863281 21.664062 C 10.738281 21.664062 10.617188 21.65625 10.496094 21.644531 C 10.257812 21.621094 10.03125 21.578125 9.824219 21.511719 C 9.769531 21.5 9.722656 21.476562 9.667969 21.460938 C 9.644531 21.449219 9.621094 21.441406 9.59375 21.429688 C 9.582031 21.425781 9.570312 21.421875 9.558594 21.417969 L 9.523438 21.402344 L 9.484375 21.386719 L 9.46875 21.375 L 9.457031 21.371094 C 9.421875 21.347656 9.5 21.402344 9.492188 21.394531 L 9.484375 21.390625 C 9.449219 21.371094 9.414062 21.351562 9.382812 21.332031 C 9.355469 21.316406 9.332031 21.304688 9.304688 21.289062 C 9.292969 21.28125 9.28125 21.277344 9.269531 21.273438 L 9.257812 21.269531 L 9.246094 21.261719 L 9.21875 21.242188 C 9.203125 21.230469 9.183594 21.21875 9.164062 21.207031 C 9.148438 21.191406 9.132812 21.179688 9.113281 21.167969 C 9.097656 21.152344 9.078125 21.140625 9.0625 21.125 C 9.046875 21.113281 9.03125 21.097656 9.015625 21.082031 C 9.007812 21.078125 9 21.070312 8.992188 21.0625 L 8.96875 21.039062 C 8.953125 21.023438 8.9375 21.007812 8.921875 20.992188 C 8.910156 20.972656 8.894531 20.957031 8.878906 20.941406 L 8.859375 20.914062 C 8.851562 20.90625 8.84375 20.898438 8.839844 20.890625 C 8.824219 20.871094 8.8125 20.851562 8.800781 20.835938 C 8.785156 20.816406 8.777344 20.796875 8.761719 20.777344 C 8.75 20.757812 8.738281 20.738281 8.726562 20.722656 C 8.714844 20.699219 8.703125 20.679688 8.691406 20.660156 C 8.683594 20.640625 8.667969 20.621094 8.660156 20.597656 C 8.652344 20.578125 8.644531 20.554688 8.632812 20.535156 C 8.628906 20.523438 8.621094 20.515625 8.617188 20.503906 L 8.605469 20.46875 C 8.539062 20.292969 8.492188 20.105469 8.472656 19.910156 C 8.4375 19.523438 8.496094 19.128906 8.609375 18.78125 C 8.667969 18.613281 8.734375 18.445312 8.816406 18.300781 C 8.851562 18.226562 8.894531 18.15625 8.933594 18.089844 C 8.953125 18.054688 8.976562 18.023438 8.996094 17.992188 C 9.019531 17.960938 9.039062 17.929688 9.058594 17.898438 C 9.226562 17.660156 9.390625 17.484375 9.5 17.359375 C 9.5625 17.300781 9.605469 17.257812 9.636719 17.226562 C 9.667969 17.195312 9.683594 17.175781 9.683594 17.175781 C 9.683594 17.175781 9.664062 17.179688 9.617188 17.1875 C 9.574219 17.191406 9.507812 17.203125 9.425781 17.21875 C 9.257812 17.253906 9.003906 17.316406 8.703125 17.460938 C 8.664062 17.480469 8.625 17.5 8.585938 17.519531 C 8.546875 17.542969 8.503906 17.5625 8.464844 17.585938 C 8.386719 17.636719 8.300781 17.683594 8.214844 17.75 C 8.175781 17.777344 8.128906 17.808594 8.085938 17.84375 C 8.042969 17.878906 8 17.914062 7.957031 17.949219 C 7.914062 17.984375 7.871094 18.027344 7.828125 18.066406 C 7.785156 18.109375 7.738281 18.152344 7.699219 18.199219 C 7.65625 18.242188 7.613281 18.289062 7.570312 18.339844 C 7.53125 18.390625 7.492188 18.441406 7.449219 18.496094 C 7.4375 18.507812 7.429688 18.523438 7.417969 18.535156 C 7.410156 18.550781 7.398438 18.5625 7.390625 18.578125 C 7.371094 18.605469 7.351562 18.636719 7.332031 18.664062 C 7.3125 18.691406 7.292969 18.722656 7.273438 18.753906 C 7.253906 18.785156 7.238281 18.8125 7.21875 18.84375 C 7.074219 19.097656 6.949219 19.382812 6.863281 19.707031 C 6.78125 20.027344 6.734375 20.382812 6.753906 20.757812 C 6.753906 20.855469 6.765625 20.949219 6.777344 21.046875 C 6.78125 21.09375 6.792969 21.140625 6.800781 21.191406 C 6.808594 21.238281 6.820312 21.289062 6.828125 21.335938 C 6.839844 21.386719 6.851562 21.433594 6.863281 21.484375 L 6.882812 21.558594 L 6.894531 21.59375 L 6.90625 21.632812 C 6.921875 21.671875 6.933594 21.710938 6.949219 21.75 L 6.941406 21.746094 L 6.894531 21.714844 L 6.855469 21.695312 C 6.824219 21.667969 6.894531 21.726562 6.886719 21.71875 L 6.878906 21.710938 C 6.835938 21.679688 6.792969 21.648438 6.753906 21.617188 L 6.691406 21.574219 L 6.675781 21.5625 L 6.667969 21.554688 L 6.652344 21.542969 C 6.632812 21.527344 6.613281 21.511719 6.59375 21.5 L 6.578125 21.488281 C 6.570312 21.484375 6.566406 21.476562 6.558594 21.472656 L 6.523438 21.4375 C 6.496094 21.414062 6.472656 21.390625 6.449219 21.367188 C 6.425781 21.34375 6.402344 21.320312 6.378906 21.296875 L 6.34375 21.257812 C 6.332031 21.25 6.324219 21.234375 6.3125 21.222656 C 6.289062 21.195312 6.269531 21.167969 6.25 21.144531 L 6.230469 21.125 C 6.226562 21.117188 6.222656 21.109375 6.21875 21.105469 L 6.191406 21.0625 C 6.171875 21.035156 6.152344 21.007812 6.132812 20.980469 C 6.113281 20.953125 6.097656 20.921875 6.082031 20.894531 L 6.054688 20.851562 C 6.046875 20.839844 6.039062 20.824219 6.03125 20.808594 C 6.015625 20.777344 6 20.746094 5.984375 20.71875 L 5.972656 20.695312 L 5.964844 20.671875 C 5.957031 20.65625 5.953125 20.640625 5.945312 20.625 C 5.929688 20.59375 5.917969 20.5625 5.902344 20.53125 C 5.894531 20.5 5.882812 20.46875 5.871094 20.433594 C 5.859375 20.402344 5.847656 20.371094 5.839844 20.339844 C 5.832031 20.304688 5.824219 20.273438 5.8125 20.238281 C 5.808594 20.222656 5.804688 20.207031 5.800781 20.1875 L 5.789062 20.140625 C 5.730469 19.871094 5.714844 19.59375 5.730469 19.320312 C 5.746094 19.046875 5.796875 18.777344 5.871094 18.523438 C 5.945312 18.269531 6.039062 18.03125 6.15625 17.8125 C 6.273438 17.59375 6.394531 17.390625 6.53125 17.214844 C 6.546875 17.191406 6.5625 17.171875 6.578125 17.148438 C 6.59375 17.125 6.613281 17.105469 6.628906 17.085938 C 6.664062 17.042969 6.699219 17.003906 6.730469 16.960938 C 6.761719 16.921875 6.796875 16.886719 6.832031 16.847656 C 6.867188 16.8125 6.898438 16.777344 6.929688 16.742188 C 7.195312 16.464844 7.445312 16.273438 7.613281 16.140625 C 7.703125 16.078125 7.769531 16.027344 7.816406 15.996094 C 7.859375 15.964844 7.886719 15.945312 7.886719 15.945312 C 7.886719 15.945312 7.855469 15.949219 7.800781 15.957031 C 7.742188 15.964844 7.660156 15.972656 7.550781 15.992188 C 7.332031 16.035156 7.007812 16.105469 6.617188 16.273438 C 6.566406 16.296875 6.515625 16.320312 6.464844 16.34375 C 6.414062 16.367188 6.359375 16.390625 6.308594 16.421875 C 6.207031 16.480469 6.089844 16.535156 5.984375 16.609375 C 5.929688 16.648438 5.871094 16.683594 5.8125 16.722656 C 5.757812 16.765625 5.703125 16.808594 5.644531 16.851562 C 5.585938 16.894531 5.53125 16.941406 5.472656 16.992188 C 5.445312 17.015625 5.414062 17.042969 5.386719 17.066406 C 5.371094 17.078125 5.359375 17.09375 5.34375 17.105469 C 5.328125 17.117188 5.316406 17.132812 5.300781 17.144531 C 5.246094 17.203125 5.1875 17.257812 5.132812 17.316406 C 5.078125 17.378906 5.023438 17.441406 4.96875 17.503906 C 4.953125 17.519531 4.9375 17.535156 4.925781 17.550781 C 4.914062 17.570312 4.898438 17.585938 4.886719 17.601562 C 4.859375 17.636719 4.832031 17.671875 4.808594 17.707031 C 4.78125 17.742188 4.753906 17.777344 4.726562 17.8125 C 4.703125 17.851562 4.679688 17.886719 4.652344 17.925781 C 4.453125 18.226562 4.277344 18.578125 4.144531 18.96875 C 4.015625 19.359375 3.929688 19.792969 3.917969 20.257812 C 3.917969 20.289062 3.914062 20.316406 3.914062 20.34375 C 3.914062 20.375 3.914062 20.402344 3.914062 20.433594 C 3.917969 20.492188 3.921875 20.550781 3.921875 20.613281 C 3.921875 20.671875 3.933594 20.730469 3.9375 20.792969 C 3.945312 20.851562 3.953125 20.910156 3.957031 20.972656 C 3.96875 21.035156 3.980469 21.09375 3.988281 21.15625 C 3.996094 21.1875 4.003906 21.214844 4.007812 21.246094 L 4.015625 21.292969 L 4.027344 21.339844 C 4.046875 21.398438 4.0625 21.460938 4.078125 21.523438 C 4.085938 21.554688 4.09375 21.585938 4.105469 21.613281 C 4.113281 21.644531 4.125 21.675781 4.136719 21.707031 C 4.15625 21.765625 4.175781 21.828125 4.199219 21.890625 C 4.222656 21.949219 4.25 22.011719 4.277344 22.070312 C 4.289062 22.101562 4.304688 22.132812 4.316406 22.160156 L 4.335938 22.207031 L 4.359375 22.25 C 4.390625 22.308594 4.421875 22.367188 4.457031 22.425781 C 4.472656 22.457031 4.484375 22.488281 4.503906 22.515625 L 4.558594 22.601562 C 4.59375 22.660156 4.632812 22.714844 4.667969 22.773438 C 4.710938 22.828125 4.75 22.882812 4.792969 22.9375 L 4.855469 23.019531 C 4.867188 23.03125 4.875 23.046875 4.886719 23.058594 L 4.925781 23.101562 C 4.976562 23.160156 5.03125 23.21875 5.082031 23.273438 L 5.125 23.316406 L 5.144531 23.339844 L 5.214844 23.410156 C 5.25 23.445312 5.285156 23.480469 5.324219 23.519531 C 5.382812 23.570312 5.445312 23.621094 5.507812 23.671875 L 5.582031 23.738281 C 5.609375 23.757812 5.632812 23.777344 5.660156 23.796875 C 5.714844 23.839844 5.765625 23.878906 5.820312 23.917969 C 5.875 23.957031 5.929688 23.992188 5.984375 24.03125 C 6.011719 24.050781 6.039062 24.070312 6.066406 24.085938 L 6.152344 24.140625 C 6.605469 24.421875 7.097656 24.640625 7.605469 24.804688 C 7.859375 24.882812 8.117188 24.949219 8.378906 25 C 8.445312 25.015625 8.507812 25.023438 8.574219 25.039062 L 8.671875 25.054688 L 8.773438 25.066406 L 8.871094 25.082031 L 8.921875 25.089844 C 8.9375 25.089844 8.953125 25.09375 8.972656 25.09375 C 9.042969 25.101562 9.113281 25.109375 9.1875 25.117188 L 9.238281 25.121094 L 9.367188 25.132812 L 9.449219 25.136719 L 9.472656 25.140625 L 9.515625 25.140625 L 9.566406 25.144531 C 9.699219 25.148438 9.832031 25.152344 9.964844 25.152344 C 10.03125 25.148438 10.097656 25.148438 10.164062 25.148438 L 10.363281 25.140625 C 10.496094 25.136719 10.628906 25.121094 10.761719 25.109375 C 10.828125 25.105469 10.894531 25.097656 10.960938 25.089844 C 11.027344 25.078125 11.09375 25.074219 11.160156 25.0625 C 11.289062 25.042969 11.421875 25.023438 11.550781 24.996094 C 11.8125 24.945312 12.066406 24.882812 12.320312 24.816406 C 12.820312 24.671875 13.300781 24.5 13.753906 24.304688 C 13.980469 24.210938 14.199219 24.105469 14.414062 24.003906 C 14.628906 23.902344 14.839844 23.800781 15.042969 23.691406 C 15.855469 23.273438 16.597656 22.859375 17.308594 22.511719 C 17.394531 22.472656 17.480469 22.429688 17.566406 22.386719 C 17.585938 22.378906 17.605469 22.367188 17.628906 22.359375 L 17.703125 22.324219 C 17.75 22.304688 17.796875 22.28125 17.84375 22.261719 L 17.863281 22.253906 C 17.875 22.246094 17.855469 22.253906 17.859375 22.253906 L 17.898438 22.234375 L 17.960938 22.210938 C 18 22.191406 18.042969 22.175781 18.082031 22.15625 C 18.164062 22.125 18.246094 22.089844 18.328125 22.058594 C 18.492188 22 18.65625 21.941406 18.820312 21.894531 C 18.902344 21.867188 18.984375 21.84375 19.066406 21.824219 C 19.109375 21.8125 19.148438 21.804688 19.1875 21.792969 C 19.230469 21.78125 19.269531 21.773438 19.3125 21.765625 C 19.964844 21.617188 20.613281 21.578125 21.226562 21.613281 C 21.835938 21.648438 22.410156 21.757812 22.921875 21.894531 C 23.175781 21.960938 23.414062 22.039062 23.636719 22.109375 C 23.855469 22.1875 24.058594 22.261719 24.242188 22.335938 C 24.609375 22.484375 24.898438 22.613281 25.09375 22.703125 C 25.195312 22.75 25.269531 22.785156 25.320312 22.808594 C 25.375 22.832031 25.398438 22.84375 25.398438 22.84375 C 25.398438 22.84375 23.222656 19.460938 19.707031 19.011719 "/></g></g></g><g transform="matrix(1,0,0,1,36,4)"><g clip-path="url(#79717bc960)"><g style="fill:#ffffff;fill-opacity:1;"><g transform="translate(0.499127, 28.867859)"><path style="stroke:none" d="M 3.828125 -2.171875 L 7.5 -2.171875 L 7.5 0 L 1.015625 0 L 1.015625 -11.515625 L 3.828125 -11.515625 Z M 3.828125 -2.171875 "/></g></g><g style="fill:#ffffff;fill-opacity:1;"><g transform="translate(8.322283, 28.867859)"><path style="stroke:none" d="M 10.0625 -9.15625 L 10.0625 0 L 7.25 0 L 7.25 -1.25 C 6.96875 -0.84375 6.582031 -0.515625 6.09375 -0.265625 C 5.601562 -0.0234375 5.066406 0.09375 4.484375 0.09375 C 3.773438 0.09375 3.15625 -0.0625 2.625 -0.375 C 2.09375 -0.6875 1.675781 -1.132812 1.375 -1.71875 C 1.082031 -2.3125 0.9375 -3.007812 0.9375 -3.8125 L 0.9375 -9.15625 L 3.71875 -9.15625 L 3.71875 -4.1875 C 3.71875 -3.570312 3.875 -3.09375 4.1875 -2.75 C 4.507812 -2.414062 4.941406 -2.25 5.484375 -2.25 C 6.023438 -2.25 6.453125 -2.414062 6.765625 -2.75 C 7.085938 -3.09375 7.25 -3.570312 7.25 -4.1875 L 7.25 -9.15625 Z M 10.0625 -9.15625 "/></g></g><g style="fill:#ffffff;fill-opacity:1;"><g transform="translate(19.376385, 28.867859)"><path style="stroke:none" d="M 12.703125 -9.25 C 13.835938 -9.25 14.738281 -8.90625 15.40625 -8.21875 C 16.082031 -7.53125 16.421875 -6.570312 16.421875 -5.34375 L 16.421875 0 L 13.640625 0 L 13.640625 -4.96875 C 13.640625 -5.5625 13.484375 -6.019531 13.171875 -6.34375 C 12.859375 -6.664062 12.425781 -6.828125 11.875 -6.828125 C 11.332031 -6.828125 10.90625 -6.664062 10.59375 -6.34375 C 10.28125 -6.019531 10.125 -5.5625 10.125 -4.96875 L 10.125 0 L 7.328125 0 L 7.328125 -4.96875 C 7.328125 -5.5625 7.171875 -6.019531 6.859375 -6.34375 C 6.554688 -6.664062 6.128906 -6.828125 5.578125 -6.828125 C 5.035156 -6.828125 4.609375 -6.664062 4.296875 -6.34375 C 3.984375 -6.019531 3.828125 -5.5625 3.828125 -4.96875 L 3.828125 0 L 1.015625 0 L 1.015625 -9.15625 L 3.828125 -9.15625 L 3.828125 -8 C 4.109375 -8.382812 4.476562 -8.6875 4.9375 -8.90625 C 5.394531 -9.132812 5.914062 -9.25 6.5 -9.25 C 7.1875 -9.25 7.800781 -9.101562 8.34375 -8.8125 C 8.882812 -8.519531 9.304688 -8.097656 9.609375 -7.546875 C 9.929688 -8.046875 10.363281 -8.453125 10.90625 -8.765625 C 11.457031 -9.085938 12.054688 -9.25 12.703125 -9.25 Z M 12.703125 -9.25 "/></g></g><g style="fill:#ffffff;fill-opacity:1;"><g transform="translate(36.744776, 28.867859)"><path style="stroke:none" d="M 2.421875 -10.109375 C 1.929688 -10.109375 1.53125 -10.25 1.21875 -10.53125 C 0.90625 -10.820312 0.75 -11.179688 0.75 -11.609375 C 0.75 -12.046875 0.90625 -12.410156 1.21875 -12.703125 C 1.53125 -12.992188 1.929688 -13.140625 2.421875 -13.140625 C 2.910156 -13.140625 3.304688 -12.992188 3.609375 -12.703125 C 3.921875 -12.410156 4.078125 -12.046875 4.078125 -11.609375 C 4.078125 -11.179688 3.921875 -10.820312 3.609375 -10.53125 C 3.304688 -10.25 2.910156 -10.109375 2.421875 -10.109375 Z M 3.828125 -9.15625 L 3.828125 0 L 1.015625 0 L 1.015625 -9.15625 Z M 3.828125 -9.15625 "/></g></g><g style="fill:#ffffff;fill-opacity:1;"><g transform="translate(41.582996, 28.867859)"><path style="stroke:none" d="M 5.1875 0.125 C 4.289062 0.125 3.484375 -0.0625 2.765625 -0.4375 C 2.046875 -0.820312 1.476562 -1.367188 1.0625 -2.078125 C 0.65625 -2.796875 0.453125 -3.628906 0.453125 -4.578125 C 0.453125 -5.515625 0.660156 -6.34375 1.078125 -7.0625 C 1.492188 -7.78125 2.0625 -8.328125 2.78125 -8.703125 C 3.507812 -9.085938 4.320312 -9.28125 5.21875 -9.28125 C 6.113281 -9.28125 6.921875 -9.085938 7.640625 -8.703125 C 8.367188 -8.328125 8.9375 -7.78125 9.34375 -7.0625 C 9.757812 -6.34375 9.96875 -5.515625 9.96875 -4.578125 C 9.96875 -3.640625 9.757812 -2.8125 9.34375 -2.09375 C 8.925781 -1.375 8.351562 -0.820312 7.625 -0.4375 C 6.894531 -0.0625 6.082031 0.125 5.1875 0.125 Z M 5.1875 -2.296875 C 5.71875 -2.296875 6.171875 -2.492188 6.546875 -2.890625 C 6.929688 -3.285156 7.125 -3.847656 7.125 -4.578125 C 7.125 -5.304688 6.9375 -5.867188 6.5625 -6.265625 C 6.195312 -6.660156 5.75 -6.859375 5.21875 -6.859375 C 4.664062 -6.859375 4.207031 -6.660156 3.84375 -6.265625 C 3.488281 -5.878906 3.3125 -5.316406 3.3125 -4.578125 C 3.3125 -3.847656 3.488281 -3.285156 3.84375 -2.890625 C 4.195312 -2.492188 4.644531 -2.296875 5.1875 -2.296875 Z M 5.1875 -2.296875 "/></g></g><g style="fill:#ffffff;fill-opacity:1;"><g transform="translate(52.030271, 28.867859)"><path style="stroke:none" d="M 5.1875 0.125 C 4.289062 0.125 3.484375 -0.0625 2.765625 -0.4375 C 2.046875 -0.820312 1.476562 -1.367188 1.0625 -2.078125 C 0.65625 -2.796875 0.453125 -3.628906 0.453125 -4.578125 C 0.453125 -5.515625 0.660156 -6.34375 1.078125 -7.0625 C 1.492188 -7.78125 2.0625 -8.328125 2.78125 -8.703125 C 3.507812 -9.085938 4.320312 -9.28125 5.21875 -9.28125 C 6.113281 -9.28125 6.921875 -9.085938 7.640625 -8.703125 C 8.367188 -8.328125 8.9375 -7.78125 9.34375 -7.0625 C 9.757812 -6.34375 9.96875 -5.515625 9.96875 -4.578125 C 9.96875 -3.640625 9.757812 -2.8125 9.34375 -2.09375 C 8.925781 -1.375 8.351562 -0.820312 7.625 -0.4375 C 6.894531 -0.0625 6.082031 0.125 5.1875 0.125 Z M 5.1875 -2.296875 C 5.71875 -2.296875 6.171875 -2.492188 6.546875 -2.890625 C 6.929688 -3.285156 7.125 -3.847656 7.125 -4.578125 C 7.125 -5.304688 6.9375 -5.867188 6.5625 -6.265625 C 6.195312 -6.660156 5.75 -6.859375 5.21875 -6.859375 C 4.664062 -6.859375 4.207031 -6.660156 3.84375 -6.265625 C 3.488281 -5.878906 3.3125 -5.316406 3.3125 -4.578125 C 3.3125 -3.847656 3.488281 -3.285156 3.84375 -2.890625 C 4.195312 -2.492188 4.644531 -2.296875 5.1875 -2.296875 Z M 5.1875 -2.296875 "/></g></g><g style="fill:#ff3131;fill-opacity:1;"><g transform="translate(62.478232, 28.867859)"><path style="stroke:none" d="M 2.328125 0.125 C 1.835938 0.125 1.4375 -0.015625 1.125 -0.296875 C 0.8125 -0.585938 0.65625 -0.945312 0.65625 -1.375 C 0.65625 -1.8125 0.8125 -2.175781 1.125 -2.46875 C 1.4375 -2.769531 1.835938 -2.921875 2.328125 -2.921875 C 2.804688 -2.921875 3.203125 -2.769531 3.515625 -2.46875 C 3.828125 -2.175781 3.984375 -1.8125 3.984375 -1.375 C 3.984375 -0.945312 3.828125 -0.585938 3.515625 -0.296875 C 3.203125 -0.015625 2.804688 0.125 2.328125 0.125 Z M 2.328125 0.125 "/></g></g><g clip-rule="nonzero" clip-path="url(#61ffa633b5)"><g transform="matrix(1,0,0,1,36,0)"><g id="9fe5e0c5c8" clip-path="url(#b690c242d9)"><g style="fill:#ff3131;fill-opacity:1;"><g transform="translate(0.606668, 18.760903)"><path style="stroke:none" d="M 2.53125 0.140625 C 2 0.140625 1.5625 -0.015625 1.21875 -0.328125 C 0.882812 -0.640625 0.71875 -1.03125 0.71875 -1.5 C 0.71875 -1.976562 0.882812 -2.375 1.21875 -2.6875 C 1.5625 -3.007812 2 -3.171875 2.53125 -3.171875 C 3.050781 -3.171875 3.484375 -3.007812 3.828125 -2.6875 C 4.171875 -2.375 4.34375 -1.976562 4.34375 -1.5 C 4.34375 -1.03125 4.171875 -0.640625 3.828125 -0.328125 C 3.484375 -0.015625 3.050781 0.140625 2.53125 0.140625 Z M 2.53125 0.140625 "/></g></g></g></g></g></g></g></g></svg>